HIERARCHY
ROOT Hips
{
	OFFSET 0.000000 0.000000 0.000000
	CHANNELS 6 Xposition Yposition Zposition Zrotation Yrotation Xrotation 
	JOINT LeftUpLeg_virtual
	{
		OFFSET 0.000000 0.000000 0.000000
		CHANNELS 3 Zrotation Yrotation Xrotation
		JOINT LeftUpLeg
		{
			OFFSET 8.479694 -4.795517 -0.379053
			CHANNELS 3 Zrotation Yrotation Xrotation
			JOINT LeftLeg
			{
				OFFSET 0.485052 -32.551468 0.112863
				CHANNELS 3 Zrotation Yrotation Xrotation
				JOINT LeftFoot
				{
					OFFSET 0.438033 -32.635670 -3.012641
					CHANNELS 3 Zrotation Yrotation Xrotation
					JOINT LeftToeBase
					{
						OFFSET 0.970169 -13.225353 11.864223
						CHANNELS 3 Zrotation Yrotation Xrotation
						End Site
						{
							OFFSET 0.000000 0.000000 0.000000
						}
					}
				}
			}
		}
	}
	JOINT RightUpLeg_virtual
	{
		OFFSET 0.000000 0.000000 0.000000
		CHANNELS 3 Zrotation Yrotation Xrotation
		JOINT RightUpLeg
		{
			OFFSET -8.479694 -4.795517 -0.379053
			CHANNELS 3 Zrotation Yrotation Xrotation
			JOINT RightLeg
			{
				OFFSET -0.484100 -32.551483 0.112903
				CHANNELS 3 Zrotation Yrotation Xrotation
				JOINT RightFoot
				{
					OFFSET -0.438985 -32.635651 -3.012681
					CHANNELS 3 Zrotation Yrotation Xrotation
					JOINT RightToeBase
					{
						OFFSET -0.970169 -13.225354 11.864223
						CHANNELS 3 Zrotation Yrotation Xrotation
						End Site
						{
							OFFSET 0.000000 0.000000 0.000000
						}
					}
				}
			}
		}
	}
	JOINT Spine_virtual
	{
		OFFSET 0.000000 0.000000 0.000000
		CHANNELS 3 Zrotation Yrotation Xrotation
		JOINT Spine
		{
			OFFSET 0.000000 7.722015 1.166203
			CHANNELS 3 Zrotation Yrotation Xrotation
			JOINT Spine1
			{
				OFFSET 0.000000 12.024086 0.248766
				CHANNELS 3 Zrotation Yrotation Xrotation
				JOINT Spine2
				{
					OFFSET -0.000000 11.503036 -0.491240
					CHANNELS 3 Zrotation Yrotation Xrotation
					JOINT Neck_virtual
					{
						OFFSET 0.000000 0.000000 0.000000
						CHANNELS 3 Zrotation Yrotation Xrotation
						JOINT Neck
						{
							OFFSET 0.000000 18.430687 -3.123054
							CHANNELS 3 Zrotation Yrotation Xrotation
							JOINT Head
							{
								OFFSET -0.000000 9.051071 1.034021
								CHANNELS 3 Zrotation Yrotation Xrotation
								End Site
								{
									OFFSET 0.000000 0.000000 0.000000
								}
							}
						}
					}
					JOINT LeftShoulder_virtual
					{
						OFFSET 0.000000 0.000000 0.000000
						CHANNELS 3 Zrotation Yrotation Xrotation
						JOINT LeftShoulder
						{
							OFFSET 6.197824 13.665230 -4.064723
							CHANNELS 3 Zrotation Yrotation Xrotation
							JOINT LeftArm
							{
								OFFSET 7.778132 -0.187073 -1.709282
								CHANNELS 3 Zrotation Yrotation Xrotation
								JOINT LeftForeArm
								{
									OFFSET 21.954697 0.000000 -2.041093
									CHANNELS 3 Zrotation Yrotation Xrotation
									JOINT LeftHand
									{
										OFFSET 22.992908 0.000000 -0.870901
										CHANNELS 3 Zrotation Yrotation Xrotation
										End Site
										{
											OFFSET 0.000000 0.000000 0.000000
										}
									}
								}
							}
						}
					}
					JOINT RightShoulder_virtual
					{
						OFFSET 0.000000 0.000000 0.000000
						CHANNELS 3 Zrotation Yrotation Xrotation
						JOINT RightShoulder
						{
							OFFSET -6.197824 13.665230 -4.064723
							CHANNELS 3 Zrotation Yrotation Xrotation
							JOINT RightArm
							{
								OFFSET -7.778132 -0.187073 -1.709282
								CHANNELS 3 Zrotation Yrotation Xrotation
								JOINT RightForeArm
								{
									OFFSET -21.954697 0.000000 -2.041093
									CHANNELS 3 Zrotation Yrotation Xrotation
									JOINT RightHand
									{
										OFFSET -22.992908 0.000000 -0.870901
										CHANNELS 3 Zrotation Yrotation Xrotation
										End Site
										{
											OFFSET 0.000000 0.000000 0.000000
										}
									}
								}
							}
						}
					}
				}
			}
		}
	}
}
MOTION
Frames: 13
Frame Time: 0.033333
-5.900865 82.524887 103.790756 179.443194 6.230459 179.729803 -5.143113 0.577685 11.252788 2.292571 -3.073200 -24.301412 6.375778 8.244913 23.801783 -4.384955 -6.227643 -5.816452 0.000000 0.000000 0.000000 0.496632 -2.489955 9.055794 -0.578234 -5.529516 -17.224113 -0.647496 -0.046896 23.446060 7.035058 10.340339 -8.248271 0.000000 0.000000 0.000000 2.705376 2.082673 1.644056 -4.775777 2.385112 -2.535649 1.288959 -3.518798 4.095331 0.075037 0.201618 -0.073837 1.342159 -2.572435 4.747270 0.797398 2.287430 -12.417841 0.000000 0.000000 0.000000 2.513257 -1.617776 1.621702 8.592431 -0.830806 -4.775387 -14.617657 7.572643 -39.166661 -7.735163 -20.204014 -0.911768 0.000000 0.000000 0.000000 -1.133666 -0.462095 1.396381 10.287939 -5.900831 -6.985141 12.296597 -18.581205 -43.512369 0.012762 31.088337 -5.048488 0.000000 0.000000 0.000000 
-5.899931 82.523712 103.778351 179.128118 6.624663 179.665954 -5.311004 0.703185 11.272909 2.062606 -2.911725 -24.312755 6.253070 8.617039 23.714656 -4.433825 -6.277413 -5.946440 0.000000 0.000000 0.000000 0.819718 -2.730660 8.974900 -0.180489 -5.988316 -17.282383 -0.451690 -0.508174 23.388366 7.137138 10.498270 -8.946308 0.000000 0.000000 0.000000 2.552054 2.129853 1.568731 -4.915438 2.451744 -2.471936 1.183457 -3.492827 4.168260 0.086331 0.212988 -0.023870 1.148386 -2.722657 4.701515 0.761047 2.374482 -12.380696 0.000000 0.000000 0.000000 2.489859 -1.516349 1.527995 8.586238 -0.805872 -4.661114 -14.475585 7.657837 -39.027841 -7.886500 -20.209930 -0.679145 0.000000 0.000000 0.000000 -1.040583 -0.402324 1.452822 10.330811 -5.844513 -6.874267 12.375969 -18.366879 -43.989929 0.327157 31.093326 -4.670027 0.000000 0.000000 0.000000 
-5.894351 82.517220 103.755539 179.132134 6.346520 179.635655 -5.320741 0.564890 11.262663 2.077285 -2.990953 -24.274614 6.272513 8.540445 23.818167 -4.451074 -6.274078 -5.990141 0.000000 0.000000 0.000000 0.821098 -2.867619 8.972960 -0.174878 -6.016817 -17.293844 -0.448328 -0.503298 23.543621 7.146167 10.438474 -9.019477 0.000000 0.000000 0.000000 2.562251 2.054709 1.615774 -4.873531 2.432683 -2.504400 1.182097 -3.522716 4.140783 0.054221 0.178498 0.000015 1.126775 -2.773602 4.668625 0.771997 2.310532 -12.357017 0.000000 0.000000 0.000000 2.522020 -1.570515 1.526091 8.685874 -0.840974 -4.734113 -14.444691 7.640211 -38.995585 -7.877353 -20.232765 -0.737294 0.000000 0.000000 0.000000 -1.056905 -0.455439 1.411792 10.389708 -5.888867 -6.869250 12.546836 -18.378130 -43.993470 0.347634 31.090714 -4.669570 0.000000 0.000000 0.000000 
-5.886982 82.508148 103.725464 179.127571 6.937221 179.577626 -5.290632 0.854888 11.275933 2.045164 -2.858600 -24.233815 6.247092 8.644952 23.870760 -4.417528 -6.208487 -6.111003 0.000000 0.000000 0.000000 0.833870 -2.784336 8.856357 -0.187433 -5.999030 -17.402747 -0.446545 -0.389641 24.054874 7.212366 10.414874 -9.008526 0.000000 0.000000 0.000000 2.522195 2.146010 1.661552 -4.887402 2.525076 -2.415687 1.195086 -3.431516 4.071595 0.174738 0.254971 -0.033554 1.209146 -2.728759 4.679496 0.872513 2.376917 -12.348036 0.000000 0.000000 0.000000 2.482791 -1.431313 1.497793 8.630447 -0.811988 -4.560389 -14.224574 7.579070 -39.034374 -7.788241 -20.256441 -0.658399 0.000000 0.000000 0.000000 -1.035237 -0.317870 1.520198 10.521853 -5.829389 -6.833422 12.564848 -18.326545 -43.924926 0.422364 31.049272 -4.587631 0.000000 0.000000 0.000000 
-5.877723 82.499130 103.697548 179.108160 7.141880 179.639357 -5.283716 0.951358 11.258283 2.013156 -2.824588 -24.275867 6.253230 8.584868 23.951831 -4.406161 -6.143969 -6.061583 0.000000 0.000000 0.000000 0.852065 -2.750280 8.777675 -0.202901 -5.986851 -17.470126 -0.442870 -0.319267 24.312554 7.256425 10.341855 -9.030961 0.000000 0.000000 0.000000 2.405073 2.171008 1.606412 -4.813509 2.586956 -2.476185 1.306257 -3.352670 4.119148 0.170758 0.360508 -0.038383 1.271011 -2.653114 4.633465 0.905512 2.065463 -12.401627 0.000000 0.000000 0.000000 2.427600 -1.427281 1.586347 8.584789 -0.950999 -4.793922 -14.096750 7.440718 -39.022821 -7.553392 -20.208079 -0.615078 0.000000 0.000000 0.000000 -1.050491 -0.374059 1.457435 10.530940 -5.897887 -7.129830 12.614904 -18.429887 -43.815370 0.759569 31.120896 -4.263875 0.000000 0.000000 0.000000 
-5.875103 82.488823 103.676811 179.145548 6.535785 179.623566 -5.287017 0.654909 11.164953 2.049514 -3.059860 -24.299685 6.303781 8.377790 24.195286 -4.440831 -6.130687 -6.154815 0.000000 0.000000 0.000000 0.875085 -3.015349 8.787808 -0.197212 -6.045638 -17.600706 -0.435555 -0.338064 24.714645 7.262379 10.212598 -9.189057 0.000000 0.000000 0.000000 2.520752 1.950443 1.650153 -4.705552 2.425819 -2.430964 1.196238 -3.466471 4.117919 0.070804 0.183464 -0.033105 1.126394 -2.701089 4.577590 0.810476 2.156707 -12.397733 0.000000 0.000000 0.000000 2.527117 -1.474339 1.490270 8.597288 -1.047999 -4.569969 -14.048134 7.423066 -38.491012 -7.685358 -20.328098 -0.365643 0.000000 0.000000 0.000000 -1.057031 -0.305769 1.412419 10.721662 -5.946417 -6.719204 12.833995 -18.281362 -44.130942 0.491182 31.151550 -4.573034 0.000000 0.000000 0.000000 
-5.878414 82.483391 103.674431 179.136942 6.669855 179.561725 -5.292974 0.735697 11.137989 2.039572 -3.137356 -24.299124 6.313677 8.318398 24.367028 -4.412551 -6.029713 -6.165888 0.000000 0.000000 0.000000 0.901541 -3.022418 8.714124 -0.222032 -6.071936 -17.755528 -0.434666 -0.273924 25.220899 7.332733 10.120565 -9.235543 0.000000 0.000000 0.000000 2.461909 1.952932 1.729200 -4.611113 2.432696 -2.376826 1.244680 -3.401828 4.110789 0.106882 0.228329 -0.099418 1.199232 -2.557450 4.553948 0.888085 2.017690 -12.381102 0.000000 0.000000 0.000000 2.459311 -1.436280 1.542725 8.548299 -1.176268 -4.534532 -14.005144 7.275226 -38.361764 -7.495669 -20.392778 -0.064500 0.000000 0.000000 0.000000 -1.036750 -0.301957 1.411764 10.806461 -6.000956 -6.576111 12.937113 -18.374556 -44.173429 0.547933 31.321468 -4.563148 0.000000 0.000000 0.000000 
-5.883486 82.483650 103.688629 179.163512 8.030508 179.610520 -5.235697 1.490401 11.075957 1.981948 -2.884904 -24.330792 6.280545 8.472425 24.397463 -4.306170 -5.841549 -6.288059 0.000000 0.000000 0.000000 0.954499 -2.696913 8.454008 -0.260093 -5.996685 -17.986250 -0.421320 -0.077244 25.806439 7.500386 10.083372 -9.040958 0.000000 0.000000 0.000000 2.469470 2.347863 1.724092 -4.521892 2.660060 -2.357427 1.250097 -3.096556 4.180197 0.100890 0.509478 0.001312 1.154432 -2.635458 4.482666 0.805011 1.962546 -12.337325 0.000000 0.000000 0.000000 2.481870 -1.315655 1.517058 8.488633 -1.204274 -4.453510 -14.171809 7.252402 -38.079626 -7.410575 -20.596292 0.089367 0.000000 0.000000 0.000000 -1.007435 -0.196353 1.352895 10.773158 -5.965696 -6.619713 12.991014 -18.415472 -44.536897 0.746030 31.454254 -4.381419 0.000000 0.000000 0.000000 
-5.884951 82.489479 103.719582 179.104144 7.018585 179.600794 -5.340454 0.773501 11.007789 2.046959 -3.236577 -24.340081 6.332145 8.319794 24.580673 -4.310275 -5.741698 -6.192575 0.000000 0.000000 0.000000 0.952133 -2.937991 8.580256 -0.267425 -6.062567 -18.057181 -0.425728 -0.146905 25.830155 7.497198 9.880636 -9.175948 0.000000 0.000000 0.000000 2.306442 1.968630 1.744789 -4.416192 2.357073 -2.325393 1.371804 -3.306044 4.206984 0.161597 0.224492 -0.077455 1.287061 -2.429213 4.575799 0.661033 1.818707 -12.283345 0.000000 0.000000 0.000000 2.511366 -1.300486 1.537066 8.233719 -1.381993 -4.467747 -14.380120 7.463633 -37.829761 -7.067806 -20.757864 0.075963 0.000000 0.000000 0.000000 -1.017425 -0.166824 1.541909 10.809885 -5.943700 -6.405373 13.001547 -18.299825 -44.845356 0.753264 31.703928 -4.292284 0.000000 0.000000 0.000000 
-5.879361 82.495399 103.753571 179.148567 7.476518 179.764104 -5.322519 1.048122 10.898226 2.086483 -3.194485 -24.449427 6.339797 8.348065 24.621801 -4.242645 -5.550987 -6.142101 0.000000 0.000000 0.000000 0.997702 -2.823775 8.400937 -0.244157 -6.062378 -18.425521 -0.412134 -0.065587 26.416955 7.574710 9.755282 -9.126122 0.000000 0.000000 0.000000 2.389580 2.140551 1.665980 -4.348827 2.379522 -2.370097 1.329825 -3.186980 4.266509 0.146802 0.299141 0.013993 1.175484 -2.578397 4.553219 0.726613 1.767455 -12.139404 0.000000 0.000000 0.000000 2.449813 -1.308353 1.596044 8.312392 -1.255308 -4.554068 -14.931234 7.538837 -37.460780 -7.091047 -21.015604 0.764299 0.000000 0.000000 0.000000 -1.020437 -0.155541 1.513593 10.764716 -5.912663 -6.455740 13.210639 -18.300995 -44.975064 0.828027 32.044188 -4.186503 0.000000 0.000000 0.000000 
-5.854579 82.505219 103.784264 179.154796 7.419115 179.761891 -5.360669 0.915660 10.876047 2.184026 -3.326357 -24.487570 6.341673 8.389018 24.717698 -4.219161 -5.390815 -6.114461 0.000000 0.000000 0.000000 1.017685 -2.705553 8.437080 -0.216897 -6.097041 -18.542338 -0.390516 -0.024886 26.446212 7.630345 9.618757 -9.041784 0.000000 0.000000 0.000000 2.391205 2.178983 1.722382 -4.291089 2.325000 -2.371167 1.355427 -3.159557 4.379029 0.136686 0.249189 -0.054761 1.218386 -2.505414 4.699092 0.644659 1.617508 -11.929176 0.000000 0.000000 0.000000 2.512477 -1.234711 1.777253 8.176230 -1.586624 -4.450798 -15.635211 7.922264 -36.901511 -6.850097 -21.468596 1.049865 0.000000 0.000000 0.000000 -1.002824 -0.074319 1.597638 11.014279 -5.840269 -6.000681 13.326070 -18.418877 -45.246011 0.761256 32.453234 -4.262867 0.000000 0.000000 0.000000 
-5.808971 82.513344 103.823624 179.185587 7.138787 179.514747 -5.405363 0.757735 10.936828 2.321177 -3.460567 -24.414731 6.349514 8.337755 24.922472 -4.221624 -5.240702 -6.112567 0.000000 0.000000 0.000000 1.037866 -2.748493 8.712432 -0.175040 -6.117978 -18.500127 -0.351466 -0.000750 26.319127 7.648013 9.464111 -8.959953 0.000000 0.000000 0.000000 2.440899 2.123988 1.949162 -4.204195 2.181197 -2.250978 1.339681 -3.204080 4.562834 0.063118 0.142765 -0.045682 1.226325 -2.422164 4.658438 0.527610 1.615673 -11.649741 0.000000 0.000000 0.000000 2.578522 -1.218634 1.853547 8.028188 -1.672023 -4.417359 -16.675693 8.303290 -35.946258 -6.624989 -22.239412 1.287197 0.000000 0.000000 0.000000 -0.866157 -0.143184 1.644532 11.152982 -5.860917 -5.816910 13.634151 -18.352698 -45.070151 0.663238 33.027714 -4.297834 0.000000 0.000000 0.000000 
-5.748689 82.518051 103.876831 179.180136 8.257082 179.628921 -5.357998 1.194177 10.996451 2.375424 -3.220548 -24.658236 6.272310 8.638564 24.929569 -4.255995 -5.106738 -6.084683 0.000000 0.000000 0.000000 1.079945 -2.541905 8.466184 -0.132412 -6.070630 -18.830642 -0.313755 0.204460 26.911285 7.698008 9.366530 -8.811461 0.000000 0.000000 0.000000 2.396153 2.382950 1.943408 -4.204728 2.326817 -2.257672 1.353172 -2.994866 4.767764 0.098677 0.283815 -0.032893 1.385839 -2.310461 4.798630 0.530225 1.422002 -11.276495 0.000000 0.000000 0.000000 2.632971 -0.868013 2.055100 7.829134 -1.522112 -4.427525 -18.099899 8.634096 -34.950160 -6.451195 -23.341021 1.673980 0.000000 0.000000 0.000000 -0.652753 -0.023426 1.966495 11.220359 -5.695577 -5.617528 14.242024 -18.262258 -44.673815 0.676685 33.995204 -4.270920 0.000000 0.000000 0.000000 
